<?xml version="1.0" encoding="UTF-8"?>
<svg xmlns="http://www.w3.org/2000/svg" width="300" height="808" viewBox="0 0 300 808" role="img" aria-label="Deploy Flow">
  <defs>
    <marker id="arrow" markerWidth="10" markerHeight="10" refX="8" refY="5" orient="auto" markerUnits="strokeWidth">
      <path d="M 0 0 L 10 5 L 0 10 z" fill="#475569" />
    </marker>
  </defs>
  <rect width="100%" height="100%" fill="#ffffff" />
  <text x="150" y="36" text-anchor="middle" font-family="Segoe UI, Arial, sans-serif" font-size="22" font-weight="600" fill="#0f172a">Deploy Flow</text>
  <path d="M 150 172 C 150 212, 150 212, 150 252" fill="none" stroke="#475569" stroke-width="2" marker-end="url(#arrow)" /><path d="M 150 344 C 150 384, 150 384, 150 424" fill="none" stroke="#475569" stroke-width="2" marker-end="url(#arrow)" /><text x="162" y="384" text-anchor="start" font-family="Segoe UI, Arial, sans-serif" font-size="12" fill="#334155">Yes</text><path d="M 150 344 C 150 465, 150 465, 150 586" fill="none" stroke="#475569" stroke-width="2" marker-end="url(#arrow)" /><text x="162" y="465" text-anchor="start" font-family="Segoe UI, Arial, sans-serif" font-size="12" fill="#334155">No</text><path d="M 150 496 C 150 541, 150 541, 150 586" fill="none" stroke="#475569" stroke-width="2" marker-end="url(#arrow)" />
  <rect x="60" y="100" width="180" height="72" rx="28" ry="28" fill="#d9f99d" stroke="#0f172a" stroke-width="2" /><text x="150" y="136" text-anchor="middle" dominant-baseline="middle" font-family="Segoe UI, Arial, sans-serif" font-size="14" fill="#0f172a">Start</text><polygon points="150,252 196,298 150,344 104,298" fill="#fef3c7" stroke="#0f172a" stroke-width="2" /><text x="150" y="289" text-anchor="middle" dominant-baseline="middle" font-family="Segoe UI, Arial, sans-serif" font-size="14" fill="#0f172a">Review</text><text x="150" y="307" text-anchor="middle" dominant-baseline="middle" font-family="Segoe UI, Arial, sans-serif" font-size="14" fill="#0f172a">approved?</text><rect x="60" y="424" width="180" height="72" rx="14" ry="14" fill="#e0f2fe" stroke="#0f172a" stroke-width="2" /><text x="150" y="460" text-anchor="middle" dominant-baseline="middle" font-family="Segoe UI, Arial, sans-serif" font-size="14" fill="#0f172a">Deploy release</text><rect x="60" y="586" width="180" height="72" rx="28" ry="28" fill="#fecaca" stroke="#0f172a" stroke-width="2" /><text x="150" y="622" text-anchor="middle" dominant-baseline="middle" font-family="Segoe UI, Arial, sans-serif" font-size="14" fill="#0f172a">End</text>
</svg>
