<svg width="64" height="64" viewBox="0 0 64 64" fill="none" xmlns="http://www.w3.org/2000/svg">
  <title>拾光笔记 icon</title>
  <desc>Filled favicon adapted from Lucide Sparkles, ISC License.</desc>
  <defs>
    <linearGradient id="tile" x1="8" y1="6" x2="56" y2="58" gradientUnits="userSpaceOnUse">
      <stop stop-color="#fffef7"/>
      <stop offset="0.62" stop-color="#fff8db"/>
      <stop offset="1" stop-color="#ffe8a3"/>
    </linearGradient>
    <linearGradient id="gold" x1="14" y1="10" x2="50" y2="52" gradientUnits="userSpaceOnUse">
      <stop stop-color="#fff6a3"/>
      <stop offset="0.46" stop-color="#facc15"/>
      <stop offset="1" stop-color="#f59e0b"/>
    </linearGradient>
    <radialGradient id="glow" cx="0" cy="0" r="1" gradientUnits="userSpaceOnUse" gradientTransform="translate(33 32) scale(27)">
      <stop stop-color="#fef08a" stop-opacity="0.58"/>
      <stop offset="1" stop-color="#fef08a" stop-opacity="0"/>
    </radialGradient>
  </defs>
  <rect x="5" y="5" width="54" height="54" rx="17" fill="url(#tile)"/>
  <rect x="5" y="5" width="54" height="54" rx="17" fill="url(#glow)"/>
  <rect x="5" y="5" width="54" height="54" rx="17" stroke="#f6c453" stroke-width="2"/>
  <g transform="translate(9 8) scale(1.9)">
    <path d="M9.937 15.5A2 2 0 0 0 8.5 14.063l-6.135-1.582a.5.5 0 0 1 0-.962L8.5 9.936A2 2 0 0 0 9.937 8.5l1.582-6.135a.5.5 0 0 1 .963 0L14.063 8.5A2 2 0 0 0 15.5 9.937l6.135 1.581a.5.5 0 0 1 0 .964L15.5 14.063a2 2 0 0 0-1.437 1.437l-1.582 6.135a.5.5 0 0 1-.963 0z" fill="url(#gold)" stroke="#b7791f" stroke-width="1.1" stroke-linejoin="round"/>
    <path d="M20 3l1.05 2.95L24 7l-2.95 1.05L20 11l-1.05-2.95L16 7l2.95-1.05L20 3Z" fill="#ffd166" stroke="#b7791f" stroke-width="0.9" stroke-linejoin="round"/>
    <path d="M4 16l.85 2.15L7 19l-2.15.85L4 22l-.85-2.15L1 19l2.15-.85L4 16Z" fill="#f59e0b" stroke="#b7791f" stroke-width="0.8" stroke-linejoin="round"/>
  </g>
</svg>
